<svg width="401" height="353" viewBox="0 0 401 353" fill="none" xmlns="http://www.w3.org/2000/svg">
<path d="M86.5968 24.866C84.7278 20.158 84.1818 15.4751 86.2187 10.6512C90.1228 1.40503 101.829 -2.47917 110.747 1.63537C114.9 3.54107 118.063 7.10134 119.467 11.4499C122.582 20.9062 118.022 31.0856 108.268 34.1748C103.853 35.5731 99.9501 34.7135 95.671 33.4352C51.9739 75.1514 13.7198 132.863 12.0291 195.185C11.4914 215.009 16.92 238.269 29.761 254.237C30.2241 254.812 30.7891 255.192 31.5131 255.372L32.0466 255.112C31.7108 253.806 30.7062 251.448 30.1957 250.071C15.8234 211.276 26.7419 167.455 47.2971 132.738C58.8525 113.601 72.6965 95.9434 88.5227 80.1551C90.9499 77.6945 96.5431 71.9649 99.2668 69.946C93.8917 62.6098 97.3378 52.4573 104.389 47.5646C108.622 44.6791 113.849 43.648 118.86 44.7103C121.894 45.3392 124.145 46.4811 126.536 48.4419C131.22 43.3984 136.464 38.7005 140.966 33.9209C138.896 28.0959 138.021 24.5423 140.664 18.482C144.713 9.19822 156.737 5.9518 165.544 10.2783C169.815 12.3483 173.061 16.0673 174.533 20.5795C178.338 32.0767 169.964 44.1417 157.855 44.1668C154.989 44.1726 152.691 43.5186 150.002 42.6269C146.853 45.7754 143.725 48.9038 140.512 51.9878C138.072 54.3294 134.843 56.9603 132.733 59.5286C134.189 68.8904 128.264 77.7138 118.729 79.4103C114.914 80.0891 111.44 79.4164 107.769 78.3247C100.556 85.1048 93.4867 93.0604 86.7907 100.348C58.9638 130.636 37.066 167.693 35.5622 209.785C35.0798 223.291 38.0176 242.225 46.3415 253.745C46.6979 254.237 47.3739 254.675 47.9058 254.978C48.7608 253.61 46.6153 243.097 46.4348 240.102C46.0151 233.864 46.1874 227.599 46.949 221.392C53.113 174.043 90.3485 133.788 125.117 103.848C131.9 97.9763 138.928 92.3941 146.183 87.1163C150.158 84.1917 154.554 80.8731 158.889 78.5425C158.307 73.3916 158.384 68.4958 161.792 64.187C171.359 52.0918 192.909 56.868 194.211 73.2025C194.581 77.9264 192.986 82.5937 189.8 86.1017C186.611 89.7084 182.102 91.8769 177.293 92.1158C173.117 92.3226 168.914 90.7836 165.439 88.5491C154.697 96.3521 142.537 105.166 132.415 114.048C101.972 140.764 66.8301 177.374 59.8148 218.951C57.0052 235.602 58.8017 257.939 69.0527 271.526C85.1878 292.914 117.11 303.232 142.676 307.059C163.246 310.136 184.69 310.209 205.339 308.457C207.761 308.249 214.02 308.044 215.764 307.016C216.556 305.413 216.329 301.724 216.311 299.833C216.011 285.099 216.296 269.254 216.293 254.427L216.29 165.061L216.296 100.52C216.293 89.2178 216.207 77.9093 216.345 66.6112C216.277 63.9132 217.449 59.5427 220.462 58.8578C225.145 57.7942 230.153 58.3001 234.961 58.2157C238.354 58.1561 241.887 58.2179 245.325 58.2185L293.429 58.2313L348.367 58.2182C355.262 58.212 362.163 58.186 369.058 58.2041C374.735 58.2194 381.355 57.7746 386.399 60.8011C395.539 64.1861 400.513 74.6359 400.534 83.9158C400.561 97.4089 400.604 110.903 400.601 124.398L400.61 203.045L400.595 280.988C400.589 294.584 400.635 308.215 400.494 321.775C400.314 339.3 387.313 351.517 370.101 352.431C361.796 352.875 353.39 352.6 345.07 352.56L309.124 352.584L252.519 352.581C243.661 352.575 234.772 352.603 225.913 352.548C224.432 352.539 221.759 352.236 220.45 351.676C218.119 350.679 216.623 347.99 215.757 345.736C203.176 345.784 192.72 345.98 180.221 344.98C128.494 340.85 75.8003 321.359 38.4749 284.386C14.2193 260.361 0.0602093 233.474 0.000254694 198.69C-0.0954892 143.034 26.814 94.0505 61.3176 51.9948C69.1356 42.4657 77.9813 33.612 86.5968 24.866ZM230.663 339.682C241.373 339.208 255.523 339.587 266.48 339.599L333.623 339.602L355.069 339.621C364.751 339.627 371.707 340.728 380.302 335.461C384.612 331.704 386.922 328.924 387.292 322.922C387.634 317.343 387.534 311.858 387.524 306.273L387.482 280.731L387.488 198.373L387.518 120.436L387.53 97.6549C387.537 92.4119 387.732 86.9658 387.264 81.7543C386.613 74.5212 380.584 71.1213 373.915 71.0751C356.513 70.9542 339.129 71.0108 321.736 71.0157L229.137 71.0506C229.513 92.8108 229.183 115.601 229.18 137.426L229.177 263.87L229.192 312.182C229.186 320.359 229.054 328.621 229.189 336.797C229.207 337.981 229.272 338.669 230.006 339.514L230.663 339.682ZM158.345 32.4303C160.559 32.0547 162.394 30.5023 163.131 28.38C163.868 26.2578 163.39 23.9024 161.884 22.235C160.379 20.5676 158.084 19.8527 155.898 20.37C152.664 21.1347 150.621 24.3282 151.282 27.5847C151.942 30.8415 155.068 32.9861 158.345 32.4303ZM116.617 67.802C118.548 67.2218 120.065 65.7189 120.662 63.793C121.259 61.8668 120.86 59.7696 119.596 58.1983C118.036 56.2589 115.448 55.4703 113.072 56.2103C109.887 57.2017 108.102 60.5799 109.077 63.7698C110.053 66.9596 113.422 68.7616 116.617 67.802ZM103.865 23.5093C107.062 22.8584 109.131 19.745 108.493 16.5454C107.855 13.3455 104.75 11.2639 101.547 11.8894C98.7257 12.4407 96.7071 14.9386 96.76 17.813C96.7924 19.5722 97.6049 21.2259 98.9777 22.3261C100.35 23.4267 102.141 23.8602 103.865 23.5093ZM178.375 80.4999C180.319 79.3124 181.758 78.3164 182.275 75.9036C182.574 74.5402 182.309 73.1141 181.541 71.949C179.911 69.4719 177.403 69.0984 174.686 69.2382C167.543 72.4225 169.836 80.9159 178.375 80.4999Z" fill="#C63945"/>
<path d="M216.311 299.834C216.011 285.099 216.296 269.254 216.293 254.427L216.29 165.061L216.296 100.52C216.293 89.2178 216.207 77.9093 216.345 66.6112C216.277 63.9133 217.449 59.5427 220.462 58.8578C225.145 57.7942 230.153 58.3002 234.961 58.2158C238.354 58.1561 241.887 58.2179 245.325 58.2185L293.429 58.2314L348.367 58.2182C355.262 58.2121 362.163 58.1861 369.058 58.2041C374.735 58.2194 381.354 57.7747 386.399 60.8011C383.386 60.5249 380.571 59.1888 377.522 59.1707C368.198 59.1151 358.875 59.1435 349.554 59.1506L297.773 59.138L250.155 59.1298C245.319 59.1258 224.546 58.5268 219.771 59.9743C216.143 61.0743 217.164 73.863 217.189 78.4752L217.232 103.05L217.201 233.624V276.632C217.189 283.618 217.256 290.73 217.073 297.711C217.048 298.711 216.895 299.066 216.311 299.834Z" fill="#B21E1E"/>
<path d="M252.663 93.1714C258.958 92.9337 266.254 93.105 272.607 93.1056L309.164 93.1112L345.168 93.091C351.432 93.0842 357.767 92.8876 364.026 93.1118C365.011 93.1473 366.02 93.1889 366.926 93.6208C368.651 94.4421 369.764 95.4307 370.394 97.2581C371.658 100.934 371.695 129.081 370.217 131.995C369.192 134.019 367.268 135.073 365.21 135.795C359.749 136.164 350.97 135.906 345.229 135.904L307.999 135.909L272.002 135.909C266.037 135.908 259.998 135.968 254.076 135.821C249.739 135.83 246.915 131.343 246.879 127.325C246.796 118.408 246.851 109.282 246.928 100.35C246.958 96.8571 249.304 94.0356 252.663 93.1714ZM259.68 123.231C261.947 122.846 270.438 123.013 273.234 123.012L301.97 123.012L339.567 123.012C344.351 123.009 353.971 122.671 358.3 123.084C358.128 117.142 358.235 111.255 358.171 105.324L294.228 105.275C283.714 105.274 269.545 104.832 259.439 105.41C259.429 110.073 259.185 118.882 259.68 123.231Z" fill="#C63945"/>
<path d="M358.299 123.084C357.07 124.517 344.449 124.054 341.772 124.056L317.396 124.059C311.027 124.057 261.623 124.409 259.65 123.504L259.68 123.231C261.947 122.846 270.438 123.013 273.234 123.012L301.97 123.012L339.567 123.012C344.351 123.009 353.971 122.671 358.299 123.084Z" fill="#B21E1E"/>
<path d="M250.754 283.682C253.871 282.113 268.533 282.688 273.133 282.688L306.809 282.701L342.919 282.691C350.334 282.691 359.119 282.26 366.439 283.251C368.192 283.49 370.199 285.778 370.706 287.537C371.685 291.868 371.028 311.537 370.951 316.939C370.927 318.652 369.575 321.628 367.911 322.558C366.381 323.412 365.821 323.919 363.879 323.95C356.232 324.066 348.462 324.008 340.824 323.999L296.662 324.002L267.762 324.023C262.629 324.023 256.741 324.289 251.657 323.537C248.94 322.723 246.967 318.939 246.925 316.312C246.836 309.053 246.995 301.785 246.845 294.514C246.759 290.504 246.799 285.818 250.754 283.682ZM358.263 311.473C357.972 306.854 358.177 299.748 358.153 294.964C350.117 294.805 341.94 295.022 333.853 294.909C309.938 295.26 285.932 294.707 262.008 294.976C261.262 294.982 260.353 295.043 259.76 295.52C259.24 297.264 259.172 309.524 259.934 311.167C261.69 311.754 274.458 311.47 277.128 311.463L335.725 311.421H351.099C352.359 311.418 357.25 311.301 358.263 311.473Z" fill="#C63945"/>
<path d="M250.754 283.682C253.871 282.113 268.533 282.688 273.133 282.688L306.809 282.701L342.919 282.691C350.334 282.691 359.119 282.26 366.439 283.251C368.192 283.49 370.199 285.778 370.706 287.537C369.562 286.9 368.755 285.698 367.901 284.652C364.173 283.022 348.505 283.612 343.559 283.618L306.803 283.643H270.09C263.954 283.637 256.796 283.404 250.754 283.682Z" fill="#B21E1E"/>
<path d="M358.263 311.473C357.07 312.913 345.051 312.403 342.76 312.393H320.436L284.424 312.412C281.102 312.418 260.947 312.923 259.377 311.619C258.139 308.371 258.909 300.063 258.928 296.248C258.931 295.407 259.368 295.046 259.907 294.606C262.265 294.064 269.12 294.282 271.83 294.285C279.533 294.251 287.235 294.263 294.94 294.321L320.329 294.288C322.651 294.291 332.378 294.006 333.853 294.909C309.938 295.26 285.932 294.707 262.008 294.976C261.262 294.982 260.353 295.043 259.76 295.52C259.24 297.264 259.173 309.524 259.934 311.167C261.69 311.754 274.458 311.47 277.128 311.463L335.725 311.421H351.099C352.359 311.418 357.25 311.301 358.263 311.473Z" fill="#B21E1E"/>
<path d="M250.476 159.882C251.862 158.997 252.755 158.53 254.443 158.518C260.54 158.476 266.633 158.493 272.73 158.493L308.445 158.494L345.18 158.493C348.933 158.488 364.781 158.087 367.103 158.913C372.621 161.519 371.795 167.175 366.968 170.11C356.241 170.216 262.62 169.536 259.956 170.579C259.255 172.274 259.169 186.058 259.631 187.312C261.109 188.755 267.9 188.265 270.129 188.256L285.855 188.193L340.188 188.209L357.801 188.203C360.315 188.201 364.374 188.058 366.779 188.24C372.49 191.694 372.159 198.431 367.189 199.763C363.035 200.876 350.215 200.394 345.899 200.394L311.174 200.39L274.629 200.378C268.095 200.378 261.531 200.483 255.012 200.29C247.074 200.055 246.71 193.496 246.851 187.277C247.01 180.263 246.793 173.212 247.007 166.203C247.081 163.662 248.286 161.217 250.476 159.882Z" fill="#C63945"/>
<path d="M250.476 159.882C251.862 158.997 252.755 158.53 254.443 158.518C260.54 158.476 266.633 158.493 272.73 158.493L308.445 158.494L345.18 158.493C348.933 158.488 364.781 158.087 367.103 158.913C364.494 160.132 284.653 159.171 274.868 159.464C269.545 159.624 257.23 159.091 251.339 159.838C250.693 159.92 251.235 159.906 250.476 159.882Z" fill="#B21E1E"/>
<path d="M251.085 223.179C252.152 222.596 252.969 222.208 254.199 222.175C262.36 221.952 270.79 222.152 278.961 222.159L299.076 222.103C301.058 222.096 303.233 222.004 305.182 222.081C308.883 222.228 312.994 221.231 314.958 225.201C317.206 229.755 314.924 234.534 309.562 234.364C298.097 234.897 286.002 233.992 274.492 234.365C272.748 234.422 260.228 234.041 259.977 234.939C259.09 238.091 259.215 246.416 259.809 249.698C276.593 249.879 293.46 249.493 310.244 249.796C311.165 249.811 312.388 250.212 313.266 250.512C313.447 250.707 313.627 250.903 313.805 251.099C317.448 255.216 315.64 261.487 310.006 261.811C306.497 262.016 302.716 261.906 299.186 261.909L277.994 261.912L261.993 261.931C255.817 261.934 247.677 263.102 246.998 254.084C246.704 247.679 246.961 241.206 246.919 234.787C246.885 230 246.6 225.935 251.085 223.179Z" fill="#C63945"/>
<path d="M251.085 223.179C252.152 222.596 252.969 222.208 254.199 222.175C262.36 221.952 270.79 222.152 278.961 222.159L299.076 222.103C301.058 222.096 303.233 222.004 305.182 222.081C308.883 222.228 312.994 221.231 314.958 225.201C317.206 229.755 314.924 234.534 309.562 234.364C310.486 233.805 312.055 233.578 312.841 232.906C316.083 230.14 315.518 223.386 310.434 223.179C303.934 222.914 297.387 223.069 290.872 223.078C277.609 222.995 264.345 223.028 251.085 223.179Z" fill="#B21E1E"/>
<path d="M351.971 221.817C358.743 221.477 365.173 224.798 368.813 230.516C372.456 236.233 372.747 243.464 369.575 249.456C366.403 255.449 360.26 259.275 353.485 259.477C343.155 259.789 334.501 251.723 334.085 241.396C333.669 231.069 341.65 222.335 351.971 221.817ZM353.794 247.239C357.415 246.795 359.979 243.485 359.511 239.868C359.04 236.25 355.715 233.706 352.099 234.201C348.52 234.69 346.006 237.978 346.471 241.561C346.936 245.143 350.206 247.679 353.794 247.239Z" fill="#C63945"/>
</svg>
